<svg width="388" height="216" viewBox="0 0 388 216" fill="none" xmlns="http://www.w3.org/2000/svg">
<mask id="mask0_1886_78" style="mask-type:alpha" maskUnits="userSpaceOnUse" x="0" y="0" width="388" height="216">
<rect width="388" height="216" fill="#D9D9D9"/>
</mask>
<g mask="url(#mask0_1886_78)">
<path d="M84.4248 32.8889C84.4248 32.8889 30.9248 71.1189 25.4948 140.579C20.0648 210.039 60.4448 274.319 91.7848 327.259C123.125 380.199 178.855 399.739 226.705 376.359C274.555 352.979 260.835 305.709 296.305 251.429C331.775 197.149 349.445 188.069 349.605 123.189C349.765 58.3089 283.165 1.38894 205.565 0.0389407C127.965 -1.31106 84.4248 32.8889 84.4248 32.8889Z" fill="#462570"/>
<path d="M45.5263 216.245H21.829L18.2705 176.957H49.0848L45.5263 216.245Z" fill="#41C57B" stroke="#263238" stroke-linecap="round" stroke-linejoin="round"/>
<path d="M49.0291 175.535H18.315C17.4183 175.535 16.6914 176.262 16.6914 177.159V177.314C16.6914 178.211 17.4183 178.938 18.315 178.938H49.0291C49.9258 178.938 50.6527 178.211 50.6527 177.314V177.159C50.6527 176.262 49.9258 175.535 49.0291 175.535Z" fill="white" stroke="#263238" stroke-linecap="round" stroke-linejoin="round"/>
<path d="M19.7715 120.688C20.2441 119.625 20.9557 118.685 21.851 117.941" stroke="#263238" stroke-linecap="round" stroke-linejoin="round"/>
<path d="M27.9785 173.408C27.9785 173.408 34.9843 172.241 39.9439 164.067C44.9036 155.894 37.9089 151.835 26.5218 142.171C19.4381 136.178 17.8924 129.383 18.6486 124.379" stroke="#263238" stroke-linecap="round" stroke-linejoin="round"/>
<path d="M42.8905 172.077C45.4872 170.459 47.3594 167.901 48.117 164.937C49.5849 159.377 47.5388 152.972 39.3654 147.723C31.192 142.474 26.8106 141.051 23.0186 136.047" stroke="#263238" stroke-linecap="round" stroke-linejoin="round"/>
<path d="M37.0303 174.276C38.3202 174.076 39.5771 173.702 40.7667 173.164" stroke="#263238" stroke-linecap="round" stroke-linejoin="round"/>
<path d="M139.493 111.135C134.2 105.23 132.043 98.658 133.644 89.6395C136.424 74.0711 153.505 56.7569 153.505 45.8701C153.505 34.9834 161.122 9.62916 184.397 8.12792C207.671 6.62669 219.481 18.3252 224.43 43.9463C229.378 69.5674 229.134 74.0489 234.894 86.0032C237.262 90.9294 239.942 95.9002 240.921 101.338C242.867 112.125 231.157 117.396 222.873 120.365C199.609 128.683 170.496 134.176 148.589 119.108C145.25 116.823 142.196 114.146 139.493 111.135Z" fill="#263238" stroke="#263238" stroke-linecap="round" stroke-linejoin="round"/>
<path d="M223.784 63.75C225.053 64.3365 226.38 64.7875 227.743 65.0956" stroke="white" stroke-miterlimit="10" stroke-linecap="round"/>
<path d="M191.869 28.3906C191.869 28.3906 201.043 50.0752 211.886 57.1699C214.321 58.7601 216.456 60.0278 218.302 61.0509" stroke="white" stroke-miterlimit="10" stroke-linecap="round"/>
<path d="M177.713 35.0703C172.442 44.1778 162.4 58.6119 148.9 64.6725" stroke="white" stroke-miterlimit="10" stroke-linecap="round"/>
<path d="M181.85 27.1328C181.85 27.1328 181.205 28.6007 179.971 30.9693" stroke="white" stroke-miterlimit="10" stroke-linecap="round"/>
<path d="M157.241 65.0977C157.241 65.0977 140.116 82.1561 142.228 102.173" stroke="white" stroke-miterlimit="10" stroke-linecap="round"/>
<path d="M161.833 68.8125C161.833 68.8125 153.904 90.5082 156.406 104.275" stroke="white" stroke-miterlimit="10" stroke-linecap="round"/>
<path d="M169.306 90.4969C169.306 90.4969 129.807 101.161 126.816 102.229C123.824 103.296 124.258 110.135 124.258 111.625C124.258 113.116 115.506 157.952 115.506 157.952C112.706 159.718 110.061 161.72 107.6 163.935C104.186 167.138 105.465 171.408 105.465 172.476C105.465 173.543 105.676 173.966 104.609 175.033C103.541 176.101 101.195 174.188 101.628 180.805C102.062 187.421 99.7045 203.045 105.676 203.857C111.648 204.669 114.65 204.079 123.402 201.088C128.555 199.371 132.889 195.805 135.567 191.08V216.278H242.745C242.745 216.278 253.631 184.463 254.276 163.546C254.921 142.629 257.69 111.87 253.854 106.11C250.017 100.349 229.723 93.9442 211.786 91.8091C193.849 89.674 172.509 89.6407 169.306 90.4969Z" fill="#41C57B"/>
<mask id="mask1_1886_78" style="mask-type:luminance" maskUnits="userSpaceOnUse" x="101" y="89" width="155" height="128">
<path d="M169.306 90.4969C169.306 90.4969 129.807 101.161 126.816 102.229C123.824 103.296 124.258 110.135 124.258 111.625C124.258 113.116 115.506 157.952 115.506 157.952C112.706 159.718 110.061 161.72 107.6 163.935C104.186 167.138 105.465 171.408 105.465 172.476C105.465 173.543 105.676 173.966 104.609 175.033C103.541 176.101 101.195 174.188 101.628 180.805C102.062 187.421 99.7045 203.045 105.676 203.857C111.648 204.669 114.65 204.079 123.402 201.088C128.555 199.371 132.889 195.805 135.567 191.08V216.278H242.745C242.745 216.278 253.631 184.463 254.276 163.546C254.921 142.629 257.69 111.87 253.854 106.11C250.017 100.349 229.723 93.9442 211.786 91.8091C193.849 89.674 172.509 89.6407 169.306 90.4969Z" fill="white"/>
</mask>
<g mask="url(#mask1_1886_78)">
<g style="mix-blend-mode:multiply" opacity="0.24">
<path d="M249.773 102.617C250.329 103.273 250.562 103.829 250.084 104.052C248.616 104.752 241.722 106.976 240.888 109.901C240.054 112.826 240.398 101.005 238.797 104.463C237.196 107.922 235.027 121.611 226.253 149.211C219.236 171.24 215.433 199.397 217.802 216.244H242.745C242.745 216.244 253.631 184.429 254.276 163.512C254.921 142.595 257.69 111.836 253.854 106.076C252.743 104.657 251.354 103.481 249.773 102.617Z" fill="black"/>
</g>
<path d="M170.796 84.5151C169.302 85.5227 168.119 86.9288 167.382 88.574C165.892 91.5542 153.293 114.829 152.226 115.896C151.158 116.964 157.986 116.753 160.766 115.474C163.546 114.195 168.661 114.195 168.661 114.195L173.576 118.032L188.733 124.014C188.733 124.014 195.561 119.099 198.975 116.33C202.389 113.561 203.89 112.483 203.89 112.483C206.855 113.486 209.715 114.774 212.431 116.33C215.845 118.465 214.566 119.533 215.845 118.465C217.123 117.398 216.49 115.263 214.733 112.271C212.976 109.28 207.693 92.8442 201.066 86.6947C194.438 80.5452 178.692 78.5324 170.796 84.5151Z" fill="#41C57B" stroke="#263238" stroke-linecap="round" stroke-linejoin="round"/>
<path d="M201.755 137.68L231.224 137.891L230.579 146.22L215.422 153.904L201.755 146.431V137.68Z" fill="#41C57B" stroke="#263238" stroke-linecap="round" stroke-linejoin="round"/>
<path d="M135.567 135.113L165.036 135.325L164.391 143.654L149.234 151.338L135.567 143.865V135.113Z" fill="#41C57B" stroke="#263238" stroke-linecap="round" stroke-linejoin="round"/>
<g style="mix-blend-mode:multiply" opacity="0.24">
<path d="M135.923 198.978C135.923 198.978 134.255 135.837 135.512 128.72C136.768 121.603 127.983 100.286 128.395 111.584C128.806 122.882 131.731 139.907 131.975 144.144C132.22 148.381 122.123 146.29 122.957 151.728C123.791 157.166 129.629 157.155 131.33 165.528C133.032 173.902 118.776 173.468 118.776 178.072C118.776 182.676 123.802 188.936 119.621 192.706C115.44 196.476 113.082 191.427 113.082 191.427C114.57 195.393 114.856 199.71 113.905 203.838C117.142 203.171 120.327 202.272 123.435 201.146C128.588 199.43 132.923 195.864 135.601 191.138V200.212L135.923 198.978Z" fill="black"/>
</g>
</g>
<path d="M169.306 90.4969C169.306 90.4969 129.807 101.161 126.816 102.229C123.824 103.296 124.258 110.135 124.258 111.625C124.258 113.116 115.506 157.952 115.506 157.952C112.706 159.718 110.061 161.72 107.6 163.935C104.186 167.138 105.465 171.408 105.465 172.476C105.465 173.543 105.676 173.966 104.609 175.033C103.541 176.101 101.195 174.188 101.628 180.805C102.062 187.421 99.7045 203.045 105.676 203.857C111.648 204.669 114.65 204.079 123.402 201.088C128.555 199.371 132.889 195.805 135.567 191.08V216.278H242.745C242.745 216.278 253.631 184.463 254.276 163.546C254.921 142.629 257.69 111.87 253.854 106.11C250.017 100.349 229.723 93.9442 211.786 91.8091C193.849 89.674 172.509 89.6407 169.306 90.4969Z" stroke="#263238" stroke-linecap="round" stroke-linejoin="round"/>
<path d="M135.567 154.539V191.481C135.567 191.481 133.644 167.995 128.528 162.012" stroke="#263238" stroke-linecap="round" stroke-linejoin="round"/>
<path d="M106.755 174.453C106.755 174.453 118.075 178.512 120.422 186.83C122.768 195.148 119.999 200.497 119.999 200.497" stroke="#263238" stroke-linecap="round" stroke-linejoin="round"/>
<path d="M93.21 188.453C93.21 188.453 101.472 184.694 102.106 184.004C102.74 183.315 110.013 183.66 113.049 191.399C116.084 199.139 113.883 202.853 112.37 203.687C110.858 204.521 102.929 206.834 100.738 206.834C98.5477 206.834 89.3402 191.322 93.21 188.453Z" fill="#41C57B" stroke="#263238" stroke-linecap="round" stroke-linejoin="round"/>
<path d="M172.076 88.3588C172.076 88.3588 168.45 215.942 169.94 215.942H195.995C195.995 215.942 196.207 122.943 197.908 114.191C199.609 105.44 203.679 89.8489 203.034 85.5787C202.389 81.3085 173.365 83.6549 173.365 83.6549C172.712 85.1527 172.277 86.737 172.076 88.3588Z" fill="white"/>
<mask id="mask2_1886_78" style="mask-type:luminance" maskUnits="userSpaceOnUse" x="169" y="83" width="35" height="133">
<path d="M172.076 88.3588C172.076 88.3588 168.45 215.942 169.94 215.942H195.995C195.995 215.942 196.207 122.943 197.908 114.191C199.609 105.44 203.679 89.8489 203.034 85.5787C202.389 81.3085 173.365 83.6549 173.365 83.6549C172.712 85.1527 172.277 86.737 172.076 88.3588Z" fill="white"/>
</mask>
<g mask="url(#mask2_1886_78)">
<path d="M172.076 88.3588C172.076 88.3588 168.45 215.942 169.94 215.942H195.995C195.995 215.942 196.207 122.943 197.908 114.191C199.609 105.44 203.679 89.8489 203.034 85.5787C202.389 81.3085 173.365 83.6549 173.365 83.6549C172.712 85.1527 172.277 86.737 172.076 88.3588Z" fill="#41C57B"/>
<path opacity="0.7" d="M172.076 88.3588C172.076 88.3588 168.45 215.942 169.94 215.942H195.995C195.995 215.942 196.207 122.943 197.908 114.191C199.609 105.44 203.679 89.8489 203.034 85.5787C202.389 81.3085 173.365 83.6549 173.365 83.6549C172.712 85.1527 172.277 86.737 172.076 88.3588Z" fill="white"/>
</g>
<path d="M172.076 88.3588C172.076 88.3588 168.45 215.942 169.94 215.942H195.995C195.995 215.942 196.207 122.943 197.908 114.191C199.609 105.44 203.679 89.8489 203.034 85.5787C202.389 81.3085 173.365 83.6549 173.365 83.6549C172.712 85.1527 172.277 86.737 172.076 88.3588Z" stroke="#263238" stroke-linecap="round" stroke-linejoin="round"/>
<path d="M197.752 115.25C189.205 117.997 180.066 118.332 171.341 116.217C170.363 154.36 168.895 215.944 169.94 215.944H195.995C195.995 215.944 196.195 128.783 197.752 115.25Z" fill="white"/>
<mask id="mask3_1886_78" style="mask-type:luminance" maskUnits="userSpaceOnUse" x="169" y="115" width="29" height="101">
<path d="M197.752 115.25C189.205 117.997 180.066 118.332 171.341 116.217C170.363 154.36 168.895 215.944 169.94 215.944H195.995C195.995 215.944 196.195 128.783 197.752 115.25Z" fill="white"/>
</mask>
<g mask="url(#mask3_1886_78)">
<path d="M196.05 202.977C196.05 199.485 196.05 195.538 196.117 191.301H169.729C169.729 195.571 169.629 199.508 169.606 202.977H196.05Z" fill="#263238"/>
<path d="M170.14 169.059C170.063 173.062 169.985 176.965 169.918 180.735H196.229C196.229 176.921 196.295 173.006 196.34 169.059H170.14Z" fill="#263238"/>
<path d="M170.597 146.82C170.508 150.701 170.419 154.605 170.341 158.497H196.44C196.496 154.516 196.551 150.59 196.618 146.82H170.597Z" fill="#263238"/>
<path d="M171.13 124.578C171.041 128.326 170.941 132.24 170.841 136.254H196.829C196.929 131.884 197.051 127.925 197.185 124.578H171.13Z" fill="#263238"/>
</g>
<path d="M197.752 115.25C189.205 117.997 180.066 118.332 171.341 116.217C170.363 154.36 168.895 215.944 169.94 215.944H195.995C195.995 215.944 196.195 128.783 197.752 115.25Z" stroke="#263238" stroke-linecap="round" stroke-linejoin="round"/>
<path d="M184.463 33.2266C184.463 33.2266 180.615 45.3921 163.968 56.29C163.968 56.29 162.856 71.4469 167.382 82.7562C171.908 94.0656 183.818 103.04 188.945 101.972C194.071 100.905 204.101 89.3728 207.515 81.2661C210.929 73.1595 210.94 58.6364 210.94 58.6364C210.94 58.6364 193.637 47.3604 184.463 33.2266Z" fill="white" stroke="#263238" stroke-linecap="round" stroke-linejoin="round"/>
<path d="M183.184 74.4844C183.184 74.4844 182.75 81.5235 183.818 82.1685C184.885 82.8135 186.809 82.591 187.02 80.2447" stroke="#263238" stroke-linecap="round" stroke-linejoin="round"/>
<path d="M181.049 86.6023C181.049 86.6023 187.665 87.8812 191.291 85.7461" stroke="#263238" stroke-linecap="round" stroke-linejoin="round"/>
<path d="M180.916 53.4089C180.916 53.4089 171.953 51.018 168.105 57.6902" stroke="#263238" stroke-linecap="round" stroke-linejoin="round"/>
<path d="M189.534 58.5238C189.534 58.5238 195.75 52.2631 204.513 57.9122" stroke="#263238" stroke-linecap="round" stroke-linejoin="round"/>
<path d="M170.585 66.7891C170.585 66.7891 174.644 70.6367 181.26 67.9011" stroke="#263238" stroke-linecap="round" stroke-linejoin="round"/>
<path d="M190.835 67.6999C190.835 67.6999 196.395 70.2687 201.077 67.2773" stroke="#263238" stroke-linecap="round" stroke-linejoin="round"/>
<path d="M174.777 77.461C179.727 77.461 183.74 73.4482 183.74 68.4981C183.74 63.548 179.727 59.5352 174.777 59.5352C169.827 59.5352 165.814 63.548 165.814 68.4981C165.814 73.4482 169.827 77.461 174.777 77.461Z" stroke="#263238" stroke-width="0.75" stroke-linecap="round" stroke-linejoin="round"/>
<path d="M196.173 77.461C201.123 77.461 205.136 73.4482 205.136 68.4981C205.136 63.548 201.123 59.5352 196.173 59.5352C191.223 59.5352 187.21 63.548 187.21 68.4981C187.21 73.4482 191.223 77.461 196.173 77.461Z" stroke="#263238" stroke-width="0.75" stroke-linecap="round" stroke-linejoin="round"/>
<path d="M183.74 68.5H187.199" stroke="#263238" stroke-width="0.75" stroke-linecap="round" stroke-linejoin="round"/>
<path d="M205.136 68.5H210.385" stroke="#263238" stroke-width="0.75" stroke-linecap="round" stroke-linejoin="round"/>
<path d="M163.412 68.5H165.792" stroke="#263238" stroke-width="0.75" stroke-linecap="round" stroke-linejoin="round"/>
<path d="M178.147 69.0542C178.147 69.0542 180.427 69.1543 178.291 69.9438C176.156 70.7334 173.999 70.3442 171.786 68.4648C171.786 68.4648 176.023 69.0209 178.147 69.0542Z" fill="#263238" stroke="#263238" stroke-linecap="round" stroke-linejoin="round"/>
<path d="M193.604 68.5229C193.604 68.5229 191.38 68.3228 193.348 69.3792C195.317 70.4356 197.552 70.3466 200.02 68.7564C199.987 68.812 195.717 68.8121 193.604 68.5229Z" fill="#263238" stroke="#263238" stroke-linecap="round" stroke-linejoin="round"/>
<path d="M227.376 142.794L223.962 107.565C223.962 107.565 216.701 106.075 214.143 104.363C211.586 102.65 208.583 100.526 208.583 100.526C208.583 100.526 206.882 102.016 205.603 100.526C204.324 99.0359 200.265 96.0779 199.62 93.687C198.975 91.2962 203.468 88.1269 206.237 84.3015C209.006 80.4762 212.008 76.8287 214.143 77.04C216.278 77.2513 225.453 86.6034 230.19 93.9095C234.927 101.215 236.806 103.084 237.018 105.652C237.229 108.221 241.466 121.221 241.466 121.221L242.578 143.217L227.376 142.794Z" fill="white" stroke="#263238" stroke-linecap="round" stroke-linejoin="round"/>
<path d="M208.583 100.526C208.583 100.526 204.38 96.3783 204.38 95.1328" stroke="#263238" stroke-linecap="round" stroke-linejoin="round"/>
<path d="M220.115 122.411L224.174 145.041L228.622 119.842L245.914 117.93C245.914 117.93 245.758 144.83 245.758 151.657C245.758 158.485 248.75 189.667 249.606 200.587C250.462 211.507 244.691 215.043 236.795 215.31C228.9 215.577 222.484 208.271 219.926 193.536C217.368 178.802 220.348 151.902 219.07 147.421C217.791 142.939 212.397 124.58 212.397 124.58L220.115 122.411Z" fill="#41C57B"/>
<mask id="mask4_1886_78" style="mask-type:luminance" maskUnits="userSpaceOnUse" x="212" y="117" width="38" height="99">
<path d="M220.115 122.411L224.174 145.041L228.622 119.842L245.914 117.93C245.914 117.93 245.758 144.83 245.758 151.657C245.758 158.485 248.75 189.667 249.606 200.587C250.462 211.507 244.691 215.043 236.795 215.31C228.9 215.577 222.484 208.271 219.926 193.536C217.368 178.802 220.348 151.902 219.07 147.421C217.791 142.939 212.397 124.58 212.397 124.58L220.115 122.411Z" fill="white"/>
</mask>
<g mask="url(#mask4_1886_78)">
<g style="mix-blend-mode:multiply" opacity="0.24">
<path d="M239.509 215.043C245.947 214.087 250.329 210.139 249.584 200.587C248.728 189.7 245.736 158.53 245.736 151.657C245.736 144.785 245.947 117.93 245.947 117.93L243.145 118.241C241.533 123.612 232.548 155.138 237.118 177.646C242.144 202.321 246.326 204.823 239.631 214.865L239.509 215.043Z" fill="black"/>
</g>
</g>
<path d="M220.115 122.411L224.174 145.041L228.622 119.842L245.914 117.93C245.914 117.93 245.758 144.83 245.758 151.657C245.758 158.485 248.75 189.667 249.606 200.587C250.462 211.507 244.691 215.043 236.795 215.31C228.9 215.577 222.484 208.271 219.926 193.536C217.368 178.802 220.348 151.902 219.07 147.421C217.791 142.939 212.397 124.58 212.397 124.58L220.115 122.411Z" stroke="#263238" stroke-linecap="round" stroke-linejoin="round"/>
<path d="M84.3692 210.596C84.3692 210.596 83.8577 214.032 86.9713 214.81C90.085 215.589 97.5689 213.643 98.1917 212.041C98.3769 211.602 98.4292 211.119 98.3423 210.65C98.2553 210.182 98.0328 209.749 97.7024 209.406H90.8745C90.8745 209.406 85.7258 207.816 84.3692 210.596Z" fill="white" stroke="#263238" stroke-linecap="round" stroke-linejoin="round"/>
<path d="M53.7998 173.543L82.1009 193.203L84.2137 190.39L55.7792 170.562L53.7998 173.543Z" fill="#263238" stroke="#263238" stroke-linecap="round" stroke-linejoin="round"/>
<path d="M60.3719 178.102L62.5737 175.3L55.7792 170.562L53.7998 173.543L60.3719 178.102Z" fill="white" stroke="#263238" stroke-linecap="round" stroke-linejoin="round"/>
<path d="M88.8065 210.294C93.2366 210.086 97.4523 208.326 100.716 205.323C105.787 200.386 106.132 197.083 99.2818 189.988C92.4317 182.894 77.4527 191.201 76.9745 194.337C76.4963 197.472 88.8065 210.294 88.8065 210.294Z" fill="white" stroke="#263238" stroke-linecap="round" stroke-linejoin="round"/>
<path d="M103.964 197.474C103.964 197.474 102.029 201.511 100.194 203.035C98.3589 204.558 95.4454 204.97 93.7217 202.512C91.9981 200.054 90.23 192.426 88.7287 192.27C87.2275 192.114 79.7436 189.657 77.6085 186.71C75.4734 183.763 75.5846 181.483 80.2885 182.885C84.9923 184.286 97.5805 185.92 97.5805 185.92C97.5805 185.92 100.561 187.711 102.629 193.994" fill="white"/>
<path d="M103.964 197.474C103.964 197.474 102.029 201.511 100.194 203.035C98.3589 204.558 95.4454 204.97 93.7217 202.512C91.9981 200.054 90.23 192.426 88.7287 192.27C87.2275 192.114 79.7436 189.657 77.6085 186.71C75.4734 183.763 75.5846 181.483 80.2885 182.885C84.9923 184.286 97.5805 185.92 97.5805 185.92C97.5805 185.92 100.561 187.711 102.629 193.994" stroke="#263238" stroke-linecap="round" stroke-linejoin="round"/>
<path d="M79.7549 206.923C80.4221 207.746 82.6128 211.472 83.647 211.727C84.6812 211.983 91.0308 207.946 93.4773 204.866C95.9237 201.786 91.3644 197.516 90.0634 196.915C88.7623 196.315 79.7549 206.923 79.7549 206.923Z" fill="white" stroke="#263238" stroke-linecap="round" stroke-linejoin="round"/>
<path d="M76.5186 195.804C76.5186 195.804 70.9584 199.14 72.2817 201.43C73.605 203.721 78.0532 207.202 79.4765 206.59C80.8999 205.979 90.4856 201.519 90.4411 199.084C90.3966 196.649 90.241 193.746 85.3369 194.147C82.3487 194.397 79.3938 194.952 76.5186 195.804Z" fill="white" stroke="#263238" stroke-linecap="round" stroke-linejoin="round"/>
<path d="M70.9582 186.565C70.9582 186.565 68.256 192.058 70.7358 194.438C73.2156 196.818 88.5282 196.762 89.3066 193.96C90.085 191.157 84.347 190.557 80.1324 188.744C75.9178 186.932 71.5475 185.264 70.9582 186.565Z" fill="white" stroke="#263238" stroke-linecap="round" stroke-linejoin="round"/>
<path d="M130.341 215.177C130.341 215.177 129.918 207.915 123.513 205.357C117.108 202.8 113.682 203.856 99.3818 207.704C90.3694 210.061 81.14 211.492 71.8369 211.974V215.177H130.341Z" fill="white" stroke="#263238" stroke-linecap="round" stroke-linejoin="round"/>
<path d="M130.107 215.177C130.107 215.177 130.53 207.915 136.935 205.357C143.341 202.8 146.754 203.856 161.066 207.704C170.075 210.061 179.301 211.491 188.6 211.974V215.177H130.107Z" fill="white" stroke="#263238" stroke-linecap="round" stroke-linejoin="round"/>
<path d="M190.979 213.898H70.3467V216.245H190.979V213.898Z" fill="#263238" stroke="#263238" stroke-linecap="round" stroke-linejoin="round"/>
<path d="M0 216.246H387.719" stroke="#263238" stroke-linecap="round" stroke-linejoin="round"/>
<path d="M383.271 151.77H301.07L273.103 216.456H355.304L383.271 151.77Z" fill="white" stroke="#263238" stroke-linecap="round" stroke-linejoin="round"/>
<path d="M386.474 151.77H304.273L276.306 216.456H358.507L386.474 151.77Z" fill="#263238" stroke="#263238" stroke-linecap="round" stroke-linejoin="round"/>
<path d="M337.967 191.137C335.855 194.473 331.896 195.785 329.127 194.028C326.358 192.271 325.791 188.145 327.926 184.798C330.061 181.451 333.998 180.161 336.822 181.907C339.647 183.653 340.08 187.801 337.967 191.137Z" fill="white" stroke="#41C57B" stroke-linecap="round" stroke-linejoin="round"/>
<path d="M274.171 213.898H214.177V216.245H274.171V213.898Z" fill="white" stroke="#263238" stroke-linecap="round" stroke-linejoin="round"/>
</g>
</svg>
