<svg width="196" height="170" viewBox="0 0 196 170" fill="none" xmlns="http://www.w3.org/2000/svg">
<g id="freepik--Clouds--inject-164">
<g id="Group">
<path id="Vector" d="M113 60.3357C113.001 57.4847 112.44 54.6614 111.35 52.0271C110.26 49.3928 108.661 46.9991 106.645 44.9828C104.629 42.9664 102.236 41.3669 99.6019 40.2756C96.9678 39.1844 94.1445 38.6227 91.2932 38.6227C90.0504 38.6232 88.81 38.732 87.586 38.9478C87.6011 30.7551 84.3607 22.8919 78.5777 17.088C72.7947 11.2842 64.9429 8.01514 56.7494 8.00005C48.5559 7.98496 40.692 11.2251 34.8877 17.0075C29.0834 22.79 25.814 30.6413 25.7989 38.834C24.8047 38.6978 23.8026 38.6272 22.799 38.6227C17.1367 38.5986 11.689 40.7879 7.61829 44.7236C3.54754 48.6592 1.17593 54.0296 1.0094 59.6891C0.842868 65.3485 2.89461 70.8491 6.7269 75.0172C10.5592 79.1853 15.8687 81.6911 21.5226 82H92.6265C98.1423 81.6606 103.321 79.2304 107.107 75.2048C110.892 71.1793 113 65.8615 113 60.3357Z" fill="white" stroke="#263238" stroke-linecap="round" stroke-linejoin="round"/>
<path id="Vector_2" d="M195 86.296C195.005 84.4414 194.601 82.6083 193.816 80.9256C193.032 79.2429 191.885 77.7515 190.457 76.5566C189.029 75.3617 187.355 74.4922 185.553 74.0094C183.75 73.5266 181.863 73.4422 180.024 73.7622C179.932 69.0257 177.976 64.5136 174.574 61.1932C171.173 57.8728 166.597 56.0085 161.828 56C157.059 55.9915 152.477 57.8395 149.063 61.1478C145.65 64.4561 143.677 68.9612 143.568 73.6973C142.981 73.6129 142.39 73.5696 141.797 73.5676C138.469 73.5718 135.273 74.8623 132.885 77.1661C130.498 79.4698 129.107 82.6059 129.006 85.9107C128.905 89.2154 130.103 92.4294 132.345 94.8725C134.588 97.3155 137.7 98.7957 141.022 99H182.978C186.233 98.7979 189.287 97.3718 191.521 95.0117C193.754 92.6517 194.998 89.535 195 86.296Z" fill="white" stroke="#263238" stroke-linecap="round" stroke-linejoin="round"/>
<path id="Vector_3" d="M148 18.6466C148 16.7029 147.243 14.8389 145.895 13.4645C144.547 12.0901 142.719 11.318 140.812 11.318C140.401 11.3158 139.991 11.3518 139.586 11.4256C139.586 8.66059 138.509 6.00879 136.591 4.0536C134.674 2.09842 132.073 1 129.361 1C126.649 1 124.049 2.09842 122.131 4.0536C120.214 6.00879 119.136 8.66059 119.136 11.4256C118.805 11.3824 118.472 11.3603 118.138 11.3594C116.277 11.3726 114.494 12.1207 113.164 13.4464C111.833 14.7721 111.059 16.5722 111.003 18.4682C110.947 20.3642 111.615 22.2084 112.865 23.613C114.115 25.0176 115.851 25.8732 117.707 26H141.259C143.091 25.8837 144.81 25.0572 146.063 23.6899C147.317 22.3226 148.01 20.5181 148 18.6466Z" fill="white" stroke="#263238" stroke-linecap="round" stroke-linejoin="round"/>
</g>
<g id="Group ">
<path id="Vector_4" d="M117.44 69.1L100.47 55L83.5 69.1H87.23V114.44H113.72V69.1H117.44Z" fill="#263238"/>
<path id="Vector_5" d="M103.43 105.7C103.114 105.705 102.811 105.829 102.583 106.048C102.355 106.267 102.218 106.564 102.2 106.88L102.14 108.48H82.2701L81.1001 136.33H119.24L120.12 115.22L120.42 108.48L120.54 105.7H103.43Z" fill="#41C57B" stroke="#263238" stroke-linecap="round" stroke-linejoin="round"/>
<path id="Vector_6" d="M119.24 136.33L119.08 110.42H82.4199L82.7099 136.01L119.24 136.33Z" fill="white" stroke="#263238" stroke-linecap="round" stroke-linejoin="round"/>
<path id="Vector_7" d="M119.24 136.33L117.58 110.42H80.9199L81.2099 136.01L119.24 136.33Z" fill="white" stroke="#263238" stroke-linecap="round" stroke-linejoin="round"/>
<path id="Vector_8" d="M81.1 136.33L76 109.62H114.38L119.24 136.33H81.1Z" fill="#41C57B" stroke="#263238" stroke-linecap="round" stroke-linejoin="round"/>
<path id="Vector_9" d="M84.8301 100.99V102.77" stroke="#263238" stroke-linecap="round" stroke-linejoin="round"/>
<path id="Vector_10" d="M84.8301 91.0901V99.2001" stroke="#263238" stroke-linecap="round" stroke-linejoin="round"/>
<path id="Vector_11" d="M116.01 82.49V89.3" stroke="#263238" stroke-linecap="round" stroke-linejoin="round"/>
<path id="Vector_12" d="M104.16 137.51V144.32" stroke="#263238" stroke-linecap="round" stroke-linejoin="round"/>
<path id="Vector_13" d="M118.94 147.88V163.3" stroke="#263238" stroke-linecap="round" stroke-linejoin="round"/>
<path id="Vector_14" d="M118.94 142.53V145.45" stroke="#263238" stroke-linecap="round" stroke-linejoin="round"/>
<path id="Vector_15" d="M84.05 141.88V147.39" stroke="#263238" stroke-linecap="round" stroke-linejoin="round"/>
<path id="Vector_16" d="M87.6201 167.35V168.65" stroke="#263238" stroke-linecap="round" stroke-linejoin="round"/>
<path id="Vector_17" d="M87.6201 145.28V165.57" stroke="#263238" stroke-linecap="round" stroke-linejoin="round"/>
</g>
</g>
</svg>
