<svg width="195" height="170" viewBox="0 0 195 170" fill="none" xmlns="http://www.w3.org/2000/svg">
<g id="freepik--Clouds--inject-164">
<g id="Group">
<path id="Vector" d="M112.5 60.3357C112.501 57.4847 111.94 54.6614 110.85 52.0271C109.76 49.3928 108.161 46.9991 106.145 44.9828C104.129 42.9664 101.736 41.3669 99.1019 40.2756C96.4678 39.1844 93.6445 38.6227 90.7932 38.6227C89.5504 38.6232 88.31 38.732 87.086 38.9478C87.1011 30.7551 83.8607 22.8919 78.0777 17.088C72.2947 11.2842 64.4429 8.01514 56.2494 8.00005C48.0559 7.98496 40.192 11.2251 34.3877 17.0075C28.5834 22.79 25.314 30.6413 25.2989 38.834C24.3047 38.6978 23.3026 38.6272 22.299 38.6227C16.6367 38.5986 11.189 40.7879 7.11829 44.7236C3.04754 48.6592 0.675932 54.0296 0.5094 59.6891C0.342868 65.3485 2.39461 70.8491 6.2269 75.0172C10.0592 79.1853 15.3687 81.6911 21.0226 82H92.1265C97.6423 81.6606 102.821 79.2304 106.607 75.2048C110.392 71.1793 112.5 65.8615 112.5 60.3357Z" fill="white" stroke="#263238" stroke-linecap="round" stroke-linejoin="round"/>
<path id="Vector_2" d="M194.5 86.296C194.505 84.4414 194.101 82.6083 193.316 80.9256C192.532 79.2429 191.385 77.7515 189.957 76.5566C188.529 75.3617 186.855 74.4922 185.053 74.0094C183.25 73.5266 181.363 73.4422 179.524 73.7622C179.432 69.0257 177.476 64.5136 174.074 61.1932C170.673 57.8728 166.097 56.0085 161.328 56C156.559 55.9915 151.977 57.8395 148.563 61.1478C145.15 64.4561 143.177 68.9612 143.068 73.6973C142.481 73.6129 141.89 73.5696 141.297 73.5676C137.969 73.5718 134.773 74.8623 132.385 77.1661C129.998 79.4698 128.607 82.6059 128.506 85.9107C128.405 89.2154 129.603 92.4294 131.845 94.8725C134.088 97.3155 137.2 98.7957 140.522 99H182.478C185.733 98.7979 188.787 97.3718 191.021 95.0117C193.254 92.6517 194.498 89.535 194.5 86.296Z" fill="white" stroke="#263238" stroke-linecap="round" stroke-linejoin="round"/>
<path id="Vector_3" d="M147.5 18.6466C147.5 16.7029 146.743 14.8389 145.395 13.4645C144.047 12.0901 142.219 11.318 140.312 11.318C139.901 11.3158 139.491 11.3518 139.086 11.4256C139.086 8.66059 138.009 6.00879 136.091 4.0536C134.174 2.09842 131.573 1 128.861 1C126.149 1 123.549 2.09842 121.631 4.0536C119.714 6.00879 118.636 8.66059 118.636 11.4256C118.305 11.3824 117.972 11.3603 117.638 11.3594C115.777 11.3726 113.994 12.1207 112.664 13.4464C111.333 14.7721 110.559 16.5722 110.503 18.4682C110.447 20.3642 111.115 22.2084 112.365 23.613C113.615 25.0176 115.351 25.8732 117.207 26H140.759C142.591 25.8837 144.31 25.0572 145.563 23.6899C146.817 22.3226 147.51 20.5181 147.5 18.6466Z" fill="white" stroke="#263238" stroke-linecap="round" stroke-linejoin="round"/>
</g>
<g id="Group ">
<path id="Vector_4" d="M116.94 69.1L99.97 55L83 69.1H86.73V114.44H113.22V69.1H116.94Z" fill="#263238"/>
<path id="Vector_5" d="M102.93 105.7C102.614 105.705 102.311 105.829 102.083 106.048C101.855 106.267 101.718 106.564 101.7 106.88L101.64 108.48H81.7701L80.6001 136.33H118.74L119.62 115.22L119.92 108.48L120.04 105.7H102.93Z" fill="#92E3A9" stroke="#263238" stroke-linecap="round" stroke-linejoin="round"/>
<path id="Vector_6" d="M118.74 136.33L118.58 110.42H81.92L82.2101 136.01L118.74 136.33Z" fill="white" stroke="#263238" stroke-linecap="round" stroke-linejoin="round"/>
<path id="Vector_7" d="M118.74 136.33L117.08 110.42H80.42L80.7101 136.01L118.74 136.33Z" fill="white" stroke="#263238" stroke-linecap="round" stroke-linejoin="round"/>
<path id="Vector_8" d="M80.6 136.33L75.5 109.62H113.88L118.74 136.33H80.6Z" fill="#92E3A9" stroke="#263238" stroke-linecap="round" stroke-linejoin="round"/>
<path id="Vector_9" d="M84.3301 100.99V102.77" stroke="#263238" stroke-linecap="round" stroke-linejoin="round"/>
<path id="Vector_10" d="M84.3301 91.0901V99.2001" stroke="#263238" stroke-linecap="round" stroke-linejoin="round"/>
<path id="Vector_11" d="M115.51 82.49V89.3" stroke="#263238" stroke-linecap="round" stroke-linejoin="round"/>
<path id="Vector_12" d="M103.66 137.51V144.32" stroke="#263238" stroke-linecap="round" stroke-linejoin="round"/>
<path id="Vector_13" d="M118.44 147.88V163.3" stroke="#263238" stroke-linecap="round" stroke-linejoin="round"/>
<path id="Vector_14" d="M118.44 142.53V145.45" stroke="#263238" stroke-linecap="round" stroke-linejoin="round"/>
<path id="Vector_15" d="M83.55 141.88V147.39" stroke="#263238" stroke-linecap="round" stroke-linejoin="round"/>
<path id="Vector_16" d="M87.1201 167.35V168.65" stroke="#263238" stroke-linecap="round" stroke-linejoin="round"/>
<path id="Vector_17" d="M87.1201 145.28V165.57" stroke="#263238" stroke-linecap="round" stroke-linejoin="round"/>
</g>
</g>
</svg>
