<svg width="20" height="20" viewBox="0 0 20 20" fill="none" xmlns="http://www.w3.org/2000/svg">
<g id="Icon/User-1">
<path id="Vector" d="M9.99996 1.66675C7.81663 1.66675 6.04163 3.44175 6.04163 5.62508C6.04163 7.76675 7.71663 9.50008 9.89996 9.57508C9.96663 9.56675 10.0333 9.56675 10.0833 9.57508C10.1 9.57508 10.1083 9.57508 10.125 9.57508C10.1333 9.57508 10.1333 9.57508 10.1416 9.57508C12.275 9.50008 13.95 7.76675 13.9583 5.62508C13.9583 3.44175 12.1833 1.66675 9.99996 1.66675Z" fill="white"/>
<path id="Vector_2" d="M14.2341 11.7907C11.9091 10.2407 8.11749 10.2407 5.77582 11.7907C4.71749 12.499 4.13416 13.4573 4.13416 14.4823C4.13416 15.5073 4.71749 16.4573 5.76749 17.1573C6.93416 17.9407 8.46746 18.3323 10.0008 18.3323C11.5341 18.3323 13.0675 17.9407 14.2341 17.1573C15.2841 16.449 15.8675 15.499 15.8675 14.4657C15.8591 13.4407 15.2841 12.4907 14.2341 11.7907Z" fill="white"/>
</g>
</svg>
